<svg width="46" height="60" viewBox="0 0 46 60" fill="none" xmlns="http://www.w3.org/2000/svg"><path d="M.001 24.132c-.01-5.25 1.077-9.436 3.47-13.25 2.812-4.488 6.7-7.664 11.675-9.484C18.433.197 21.823-.25 25.299.136c3.45.383 6.683 1.45 9.631 3.309 4.498 2.83 7.687 6.719 9.514 11.719 1.563 4.281 1.796 8.647.758 13.073-.758 3.233-2.204 6.148-4.19 8.803-5.61 7.508-11.21 15.023-16.803 22.544a1.922 1.922 0 0 1-1.023.413c-1.101.028-1.543-.361-2.21-1.267a2806.11 2806.11 0 0 0-16.009-21.5C2.99 34.59 1.471 31.724.721 28.506c-.39-1.678-.565-3.408-.72-4.374Zm22.953-8.773a7.018 7.018 0 0 0-4.95 2.025 7.04 7.04 0 0 0-2.091 4.929c-.031 3.862 3.115 7.056 6.974 7.082 3.827.024 7.013-3.126 7.042-6.968a7.04 7.04 0 0 0-2.028-4.979 7.018 7.018 0 0 0-4.947-2.09Z" fill="#DF2424"/></svg>