<svg data-name="Слой 1" xmlns="http://www.w3.org/2000/svg" viewBox="0 0 482.37 787.76" width="30" height="30"><path d="M256.18 493a51 51 0 0 1 .79-6.9c.85-3.35-.27-3.78-3.45-3.64-38.4 1.72-75.33-4.83-110.42-20.6-48.3-21.72-85.77-55.64-111.93-101.69C6.9 317.43-3 271.4.79 222.34c4.19-54.25 24.6-101.68 60.77-141.95 39.78-44.3 89.68-70.53 148.82-78.23 54.37-7.11 105.55 3.44 152.76 31.16 44.35 26 77.07 62.86 98.31 109.87 16.26 36 22.46 73.77 20.61 112.89-.91 19.22-3.4 38.38-8.92 57-.1-1.37-.21-2.73-.31-4.09-3.73 13.93-9.52 27-15.79 39.71a237 237 0 0 1-46.06 63.76 239.55 239.55 0 0 1-46.63 36.27 237.15 237.15 0 0 1-48.48 21.84A223 223 0 0 1 263.92 481c-3.52.26-6.1 1.37-6.13 5.88-.01 1.9.11 4.41-1.61 6.12Zm-15.16-153c54.24.08 98.72-44.16 98.88-98.37s-44.12-98.53-98.46-98.82-99.23 44.42-99.13 98.65 44.39 98.42 98.71 98.54Z" fill="#e83c3c"/><path d="M256.18 493c1.72-1.69 1.6-4.2 1.61-6.06 0-4.51 2.61-5.62 6.13-5.88a223 223 0 0 0 51.95-10.5 237.15 237.15 0 0 0 48.48-21.84 239.55 239.55 0 0 0 46.63-36.27 237 237 0 0 0 46.06-63.76c6.27-12.75 12.06-25.78 15.79-39.71.1 1.36.21 2.72.31 4.09-7.74 33.89-20.05 66.17-34.28 97.79-26.29 58.39-58.71 113.42-92.43 167.74-40.22 64.78-83.5 127.57-125.26 191.4a178 178 0 0 1-12.78 17.81q9.66-59.16 19.3-118.3c6-37 11.77-74 17.67-111q5-31.56 10.12-63.11a19.1 19.1 0 0 1 .7-2.4Z" fill="#e01016"/></svg>