<svg id="Слой_1" data-name="Слой 1" xmlns="http://www.w3.org/2000/svg" viewBox="0 0 1133.41 1133.53" width="30" height="30"><defs><style>.cls-3{fill:#d5d5d4}.cls-5{fill:#802b27}.cls-8{fill:#9cd0b6}.cls-9{fill:#87bd8e}.cls-10{fill:#72bf98}</style></defs><path d="M96.76 1135.78H75.47a4.36 4.36 0 0 0-2.19-.48 62.28 62.28 0 0 1-9.8-1.45 78.94 78.94 0 0 1-45.41-28 78.11 78.11 0 0 1-17.55-44.37l.08-7.08 21.77-21.74 614.26-614c.5.81 1 1.6 1.48 2.42 6.74 12.06 13.94 23.83 21.35 35.47 11.78 18.51 24 36.69 36.42 54.81q4.39 6.43 8.78 12.89c.42.62.77 1.3 1.15 2Z" transform="translate(-.44 -2.25)" fill="#ffe052"/><path d="M600.74 631.32c1 .9 2 1.82 2.94 2.75l419.69 419.79a2.72 2.72 0 0 0 1.51.73v4.82c-.61 4.76-.89 9.57-2 14.27a88.93 88.93 0 0 1-4.48 13.71 58.45 58.45 0 0 1-3.71 7.32c-1.17 1.94-2.17 4-3.51 5.81a72 72 0 0 1-7.52 9.19c-.93.92-1.71 2-2.64 2.94s-1.9 1.57-2.74 2.45a43.35 43.35 0 0 1-5.4 4.55 63.19 63.19 0 0 1-6.8 4.58c-1.57.88-3.09 1.84-4.68 2.66a79.63 79.63 0 0 1-13.63 5.5c-2.34.71-4.77 1.14-7.16 1.67-1.2.26-2.41.45-3.62.67l-26.92.34-416.36-416.68Z" transform="translate(-.44 -2.25)" fill="#f1f1f1"/><path d="M605.18 449.42.6 1054.4l-.13-5.49V196.08c0-2.65.08-5.29.1-7.94a16.23 16.23 0 0 0-.13-1.69 78.25 78.25 0 0 1 6.21-26.9A80.11 80.11 0 0 1 61.39 113a63.23 63.23 0 0 1 13.42-2l570.64.12-8.81 307.56Zm-397.49 37.77h1.07l1.14.11a4.35 4.35 0 0 0 2.83.41l1.72.15a9.63 9.63 0 0 0 4.52.46l2.28.11a2.84 2.84 0 0 0 1.55.23 12.76 12.76 0 0 0 1.92.3h12.27a5.71 5.71 0 0 0 2.45-.45l7.8-.69a4.06 4.06 0 0 0 3-.44c3.65-.5 7.27-1.17 10.86-2a146 146 0 0 0 40.5-15.72c8.37-4.8 16.44-10 23.54-16.65.21-.19.43-.37.65-.55a142.84 142.84 0 0 0 20.2-21c20.88-26.88 31.61-57.29 31.72-91.39 0-3.41-.23-6.8-.42-10.19-.25-4.25-.81-8.46-1.41-12.67-.22-1.49-.5-3-.83-4.46a7.88 7.88 0 0 0-6.28-6.51 6 6 0 0 0-1.31-.46c-.85-.08-1.7-.08-2.55-.08H231.83c-.85 0-1.7 0-2.55.08a6.6 6.6 0 0 0-1.32.44 7.65 7.65 0 0 0-4.69 2.4 8.12 8.12 0 0 0-2.14 4.83c-.13 1.32-.23 2.64-.23 4v48.19a22.83 22.83 0 0 0 .35 3.09 7.64 7.64 0 0 0 4.85 5.84 17.16 17.16 0 0 0 1.9.52 2.93 2.93 0 0 0 1.6.47c1 0 2.08.06 3.11.06h63.93c.57 0 1.13 0 1.7-.05a.89.89 0 0 1 .32 1.23c-1 1.8-2.06 3.62-3.17 5.37-1.21 1.92-2.43 3.84-3.8 5.64A75.89 75.89 0 0 1 273 405.24a80.8 80.8 0 0 1-19.8 9.67 68.62 68.62 0 0 1-14.94 3.14 22.41 22.41 0 0 0-5.49.18 3.84 3.84 0 0 0-.78.28h-3.91a16.28 16.28 0 0 0-6.29-.45l-1.65-.12a5 5 0 0 0-3.39-.5l-.58-.07a2.67 2.67 0 0 0-2.3-.46 2 2 0 0 1-.54-.08 2.71 2.71 0 0 0-2.26-.52 71.54 71.54 0 0 1-18.74-7.14 78.48 78.48 0 0 1-19.73-15.57 73.37 73.37 0 0 1-11.22-15.27c-3.21-6-6.06-12.16-7.48-18.9a99.23 99.23 0 0 1-2.21-15.7 64.27 64.27 0 0 1 0-6.8 99 99 0 0 1 1.39-11.25 60.35 60.35 0 0 1 4.53-15.16c.24-.51.45-1 .68-1.56A78 78 0 0 1 178 282.19a82.33 82.33 0 0 1 24.41-14.68 61.13 61.13 0 0 1 11.42-3.29 2.06 2.06 0 0 0 1.86-.41l1.51-.19a3.14 3.14 0 0 0 2.44-.42l1.54-.13a15.92 15.92 0 0 0 5.79-.52h1a6.81 6.81 0 0 0 3 0l1.59.08a11.51 11.51 0 0 0 5.21.5l1 .08a5.72 5.72 0 0 0 3.5.5l1 .12a2.07 2.07 0 0 0 1.87.39c.56.1 1.12.16 1.67.29a79.85 79.85 0 0 1 27.21 12c.7.48 1.38 1 2.08 1.46a9.74 9.74 0 0 0 3.54 1.69 4.44 4.44 0 0 0 4.51 0 10 10 0 0 0 4.19-2.8L324 241.17a15.53 15.53 0 0 0 1.84-2.14 8 8 0 0 0 1.5-4.51 8.72 8.72 0 0 0-2.28-6.22 18.34 18.34 0 0 0-2.27-2.13 152.86 152.86 0 0 0-34.11-21.08 150.8 150.8 0 0 0-31.51-10 61.64 61.64 0 0 0-7.53-1.27 3 3 0 0 0-2.38-.39l-1.62-.14a10.74 10.74 0 0 0-5.15-.51h-1.1a3.37 3.37 0 0 0-1.66-.28 21.19 21.19 0 0 0-2.23-.27h-11.31a21.5 21.5 0 0 0-2.51.31l-.52.2-2.77.11a11.58 11.58 0 0 0-5.13.5l-1.1.09a4.33 4.33 0 0 0-2.91.43l-1.06.12a3 3 0 0 0-2.37.43c-.56.06-1.13.1-1.69.21a156.35 156.35 0 0 0-15.95 3.88A147.24 147.24 0 0 0 141.65 222a156.3 156.3 0 0 0-29.44 29.32 101 101 0 0 0-9.21 13.89c-.35.66-.77 1.3-1.18 1.93a80.22 80.22 0 0 0-4.21 7.38c-1.75 3.46-3.32 7-4.82 10.57a141.44 141.44 0 0 0-11.16 52.06 139.11 139.11 0 0 0 .78 19.25 145.94 145.94 0 0 0 19.66 58.06c.15.24.31.48.44.73a88.77 88.77 0 0 0 5.69 9.14 149.42 149.42 0 0 0 44.43 42.31A142.55 142.55 0 0 0 203 486.22a2 2 0 0 0 1.87.39l1 .12a2.73 2.73 0 0 0 1.82.46Z" transform="translate(-.44 -2.25)" fill="#1da362"/><path class="cls-3" d="m1024.9 519.37-319.09 6.85-105.07 105.1 247.5 247.34c2 2.25 8.07 8.2 8.76 8.89l164.7 164.76c.53.54 1.08 1.06 1.62 1.58a2.72 2.72 0 0 0 1.51.73v-5.67Z" transform="translate(-.44 -2.25)"/><path class="cls-5" d="m592.77 271.22-.1-.14.1-.13.11.13Z" transform="translate(-.44 -2.25)"/><path d="m513.64 718.39 416.42 416.68-2.45.13h-2.84q-411.3 0-822.62.49c-1.6 0-3.79.11-5.39.08Z" transform="translate(-.44 -2.25)" fill="#5580c0"/><path class="cls-5" d="m592.77 263.84-.1-.14.1-.13.11.14Z" transform="translate(-.44 -2.25)"/><path d="M213.79 264.22a61.13 61.13 0 0 0-11.42 3.29A82.33 82.33 0 0 0 178 282.19 78 78 0 0 0 158.33 309c-.23.52-.44 1.05-.68 1.56a60.35 60.35 0 0 0-4.53 15.16 99 99 0 0 0-1.39 11.25 64.27 64.27 0 0 0 0 6.8 99.23 99.23 0 0 0 2.21 15.7c1.42 6.74 4.27 12.89 7.48 18.9a73.37 73.37 0 0 0 11.18 15.23 78.48 78.48 0 0 0 19.72 15.57 71.54 71.54 0 0 0 18.74 7.14 3.13 3.13 0 0 0 2.26.52 2 2 0 0 0 .54.08 3.17 3.17 0 0 0 2.3.46l.58.07a6.35 6.35 0 0 0 3.39.5l1.65.12a15.36 15.36 0 0 0 6.29.45H232a15.43 15.43 0 0 0 6.27-.46 68.62 68.62 0 0 0 14.94-3.14 80.8 80.8 0 0 0 19.8-9.67 75.89 75.89 0 0 0 18.72-17.56c1.37-1.8 2.59-3.72 3.8-5.64 1.11-1.75 2.13-3.57 3.17-5.37a.89.89 0 0 0-.32-1.23 4.75 4.75 0 0 0-1-.42 14.51 14.51 0 0 0-2-.09h-64L228 375a17.16 17.16 0 0 1-1.9-.52 7.64 7.64 0 0 1-4.85-5.84 22.83 22.83 0 0 1-.35-3.09c-.06-.66 0-1.32 0-2v-46.19c0-1.32.1-2.64.23-4a8.12 8.12 0 0 1 2.14-4.83 7.65 7.65 0 0 1 4.69-2.4h140.8a7.88 7.88 0 0 1 6.24 6.57c.33 1.48.61 3 .83 4.46.6 4.21 1.16 8.42 1.41 12.67.19 3.39.43 6.78.42 10.19-.11 34.1-10.84 64.51-31.72 91.39a142.84 142.84 0 0 1-20.2 21c-.22.18-.44.36-.65.55-7.1 6.61-15.17 11.85-23.54 16.65a146 146 0 0 1-40.5 15.72c-3.59.81-7.21 1.48-10.86 2a4.69 4.69 0 0 0-3 .44l-7.8.69a15.78 15.78 0 0 0-1.67-.11c-5 .21-9.91.18-14.87 0a3.19 3.19 0 0 0-1.65.05l-2.2-.1a8.22 8.22 0 0 0-4.52-.46l-1.72-.15a3.69 3.69 0 0 0-2.83-.41l-1.14-.11a1.42 1.42 0 0 0-1.13-.37l-1.76-.07-1-.12a2.17 2.17 0 0 0-1.87-.39 142.55 142.55 0 0 1-50.4-19.58 149.42 149.42 0 0 1-44.43-42.31 88.77 88.77 0 0 1-5.69-9.14c-.13-.25-.29-.49-.44-.73a145.94 145.94 0 0 1-19.68-58.06 139.11 139.11 0 0 1-.78-19.25 141.44 141.44 0 0 1 11.16-52.06c1.5-3.57 3.07-7.11 4.82-10.57a80.22 80.22 0 0 1 4.21-7.38c.41-.63.83-1.27 1.18-1.93a101 101 0 0 1 9.23-13.93A156.3 156.3 0 0 1 141.65 222a147.24 147.24 0 0 1 46.56-23.46 156.35 156.35 0 0 1 15.95-3.88c.56-.11 1.13-.15 1.69-.21a3 3 0 0 0 2.37-.43l1.06-.12a4 4 0 0 0 2.91-.43l1.1-.09a10.78 10.78 0 0 0 5.13-.5l2.77-.11.6.08h15.89a3.12 3.12 0 0 0 1.74 0h1.1a11.55 11.55 0 0 0 5.15.51l1.62.14a2.87 2.87 0 0 0 2.38.39 61.64 61.64 0 0 1 7.53 1.27 150.8 150.8 0 0 1 31.51 10 152.86 152.86 0 0 1 34.11 21.08 18.34 18.34 0 0 1 2.27 2.13 8.72 8.72 0 0 1 2.28 6.22 8 8 0 0 1-1.5 4.51 15.53 15.53 0 0 1-1.84 2.14l-35.69 35.56a10 10 0 0 1-4.19 2.8h-4.51a9.74 9.74 0 0 1-3.54-1.6c-.7-.47-1.38-1-2.08-1.46a79.85 79.85 0 0 0-27.21-12c-.55-.13-1.11-.19-1.67-.29a2.13 2.13 0 0 0-1.87-.39l-1-.12a5.78 5.78 0 0 0-3.5-.5l-1-.08a11.66 11.66 0 0 0-5.21-.5l-1.59-.08a3.72 3.72 0 0 0-3 0h-1a15.38 15.38 0 0 0-5.28.29 2.11 2.11 0 0 0-.51.23l-1.54.13a3.13 3.13 0 0 0-2.44.42l-1.51.19a2.18 2.18 0 0 0-1.9.38Z" transform="translate(-.44 -2.25)" fill="#efefef"/><path class="cls-8" d="M368.76 306.19h-140.8a6.6 6.6 0 0 1 1.32-.44c.85-.08 1.7-.08 2.55-.08H364.9c.85 0 1.7 0 2.55.08a6 6 0 0 1 1.31.44ZM228 375h67.38a14.51 14.51 0 0 1 2 .09 4.75 4.75 0 0 1 1 .42c-.57 0-1.13.05-1.7.05h-63.93c-1 0-2.07 0-3.11-.06a2.93 2.93 0 0 1-1.64-.5Z" transform="translate(-.44 -2.25)"/><path class="cls-9" d="M222.9 488.36c5 .16 9.91.19 14.87 0a15.78 15.78 0 0 1 1.67.11 5.71 5.71 0 0 1-2.45.45h-12.27a12.76 12.76 0 0 1-1.92-.3 1.33 1.33 0 0 0 .1-.26Z" transform="translate(-.44 -2.25)"/><path class="cls-10" d="M237.68 192.77h-15.89c0-.1 0-.19-.08-.28a21.5 21.5 0 0 1 2.51-.31q5.66-.06 11.31 0a21.19 21.19 0 0 1 2.23.27 2.81 2.81 0 0 1-.08.32Z" transform="translate(-.44 -2.25)"/><path class="cls-9" d="M221.14 263.07a2.11 2.11 0 0 1 .51-.23 15.38 15.38 0 0 1 5.28-.29 15.92 15.92 0 0 1-5.79.52Z" transform="translate(-.44 -2.25)"/><path class="cls-8" d="M245.67 193.3a11.55 11.55 0 0 1-5.15-.51 10.74 10.74 0 0 1 5.15.51Z" transform="translate(-.44 -2.25)"/><path class="cls-10" d="M238.25 418.05a15.43 15.43 0 0 1-6.27.46 3.84 3.84 0 0 1 .78-.28 22.41 22.41 0 0 1 5.49-.18ZM228.07 418.51a15.36 15.36 0 0 1-6.29-.45 16.28 16.28 0 0 1 6.29.45Z" transform="translate(-.44 -2.25)"/><path class="cls-8" d="M218.42 192.84a10.78 10.78 0 0 1-5.13.5 11.58 11.58 0 0 1 5.13-.5Z" transform="translate(-.44 -2.25)"/><path class="cls-9" d="M232.53 262.61a11.66 11.66 0 0 1 5.21.5 11.51 11.51 0 0 1-5.21-.5Z" transform="translate(-.44 -2.25)"/><path class="cls-8" d="M214.45 487.84a8.22 8.22 0 0 1 4.52.46 9.63 9.63 0 0 1-4.52-.46ZM279.64 279.65h4.51a4.44 4.44 0 0 1-4.51 0Z" transform="translate(-.44 -2.25)"/><path class="cls-9" d="M238.76 263.19a5.78 5.78 0 0 1 3.5.5 5.72 5.72 0 0 1-3.5-.5Z" transform="translate(-.44 -2.25)"/><path class="cls-10" d="M220.13 417.94a6.35 6.35 0 0 1-3.39-.5 5 5 0 0 1 3.39.5Z" transform="translate(-.44 -2.25)"/><path class="cls-9" d="M228 262.52a3.72 3.72 0 0 1 3 0 6.81 6.81 0 0 1-3 0Z" transform="translate(-.44 -2.25)"/><path class="cls-8" d="M209.9 487.28a3.69 3.69 0 0 1 2.83.41 4.35 4.35 0 0 1-2.83-.41ZM212.19 193.43a4 4 0 0 1-2.91.43 4.33 4.33 0 0 1 2.91-.43Z" transform="translate(-.44 -2.25)"/><path class="cls-9" d="M247.24 487.76a4.69 4.69 0 0 1 3-.44 4.06 4.06 0 0 1-3 .44ZM217.16 263.62a3.13 3.13 0 0 1 2.44-.42 3.14 3.14 0 0 1-2.44.42Z" transform="translate(-.44 -2.25)"/><path class="cls-8" d="M208.22 194a3 3 0 0 1-2.37.43 3 3 0 0 1 2.37-.43Z" transform="translate(-.44 -2.25)"/><path class="cls-10" d="M216.16 417.37a3.17 3.17 0 0 1-2.3-.46 2.67 2.67 0 0 1 2.3.46Z" transform="translate(-.44 -2.25)"/><path class="cls-8" d="M249.67 193.83a2.87 2.87 0 0 1-2.38-.39 3 3 0 0 1 2.38.39Z" transform="translate(-.44 -2.25)"/><path class="cls-10" d="M213.32 416.83a3.13 3.13 0 0 1-2.26-.52 2.71 2.71 0 0 1 2.26.52Z" transform="translate(-.44 -2.25)"/><path class="cls-9" d="M203 486.22a2.17 2.17 0 0 1 1.87.39 2 2 0 0 1-1.87-.39ZM205.87 486.73l1.76.07a2.63 2.63 0 0 0 .06.39 2.73 2.73 0 0 1-1.82-.46Z" transform="translate(-.44 -2.25)"/><path class="cls-8" d="M222.9 488.36a1.33 1.33 0 0 1-.1.28 2.84 2.84 0 0 1-1.55-.23 3.19 3.19 0 0 1 1.65-.05ZM237.68 192.77a2.81 2.81 0 0 0 .08-.31 3.37 3.37 0 0 1 1.66.28 3.12 3.12 0 0 1-1.74.03Z" transform="translate(-.44 -2.25)"/><path class="cls-9" d="M243.27 263.81a2.13 2.13 0 0 1 1.87.39 2.07 2.07 0 0 1-1.87-.39ZM213.79 264.22a2.18 2.18 0 0 1 1.86-.41 2.06 2.06 0 0 1-1.86.41Z" transform="translate(-.44 -2.25)"/><path class="cls-8" d="M207.69 487.19a2.63 2.63 0 0 1-.06-.39 1.42 1.42 0 0 1 1.13.37ZM221.71 192.53c0 .09 0 .18.08.28l-.6-.08Z" transform="translate(-.44 -2.25)"/><path d="M897.42 774.67c-2.42 14.38-6.85 28.32-9.35 42.68-3 17.25-5 34.62-7.44 51.93-1.9 13.47-12.17 19.13-25.3 14.8a16.3 16.3 0 0 1-8.06-8.06c-3.89-8.39-3.09-17.58-4.33-26.36a581.7 581.7 0 0 0-13.07-67.49l-4.46-17.23c-10.32-36.06-21.24-69.58-37.66-103.26-14-29-30.5-56.63-47.86-83.76C717 542.18 692.24 507.71 669 472.23c-21.78-33.24-42.52-67-56.73-104.35a8.14 8.14 0 0 0-2.3-3.67c-8.45-20.64-13.11-42.26-15.87-64.28a273.44 273.44 0 0 1 0-65.07 28 28 0 0 1 .88-3.64c3.6-20.47 8.62-40.56 16.32-59.9a256.15 256.15 0 0 1 43.15-71.65c20.66-24.26 44.43-44.82 72.1-60.68 33.9-19.38 70.12-31.59 109-35.34 60.43-5.85 117.09 6.55 168.83 38.27 57.41 35.15 97.07 84.87 117.39 149.5 2.8 8.91 4.71 18 7.11 27 7.53 39.27 6.88 78.28-3.85 117a128.5 128.5 0 0 0-4.84 13.81c-12.64 39-32 74.74-54 109.14-22.44 35.05-46.67 68.88-69.57 103.62-23.44 35.42-45.42 71.75-63.49 110.19l-18.83 50.34Z" transform="translate(-.44 -2.25)" fill="#dd4c3e"/><path class="cls-5" d="M768.3 268a94.79 94.79 0 1 1 94.7 94.9h-.07a94.69 94.69 0 0 1-94.62-94.77Z" transform="translate(-.44 -2.25)"/></svg>