<svg data-name="Слой 1" xmlns="http://www.w3.org/2000/svg" viewBox="0 0 18 18" width="18" height="18"><path d="M9 0a8.89 8.89 0 0 1 2.29.3A8.6 8.6 0 0 1 13 .93a.92.92 0 0 1 .5.88.89.89 0 0 1-.7.81 1 1 0 0 1-.73-.13 7.19 7.19 0 0 0-8.39 1.67 6.76 6.76 0 0 0-1.52 2.6 7.18 7.18 0 0 0-.34 2.72 7.18 7.18 0 0 0 4.27 6.1 7.27 7.27 0 0 0 1.83.54 7.57 7.57 0 0 0 2 0 7.1 7.1 0 0 0 3.63-1.53 7.19 7.19 0 0 0 2.07-2.69 7.42 7.42 0 0 0 .54-1.85 7.65 7.65 0 0 0 0-1.85.9.9 0 1 1 1.78-.2 9.37 9.37 0 0 1 0 2 9 9 0 0 1-.32 1.54A8.84 8.84 0 0 1 16 14.63a9 9 0 0 1-4.71 3.07 9.17 9.17 0 0 1-3.38.24A9.53 9.53 0 0 1 6 17.5a8.94 8.94 0 0 1-4-2.77 8.83 8.83 0 0 1-1.53-2.86 9.13 9.13 0 0 1-.22-5A8.89 8.89 0 0 1 2 3.29 8.82 8.82 0 0 1 4.89 1 8.47 8.47 0 0 1 6.76.28 8.27 8.27 0 0 1 9 0Z"/><path d="M5.4 8a.9.9 0 0 1 1.53-.54c.64.62 1.26 1.26 1.89 1.89.18.17.18.17.35 0l7.26-7.25a.9.9 0 1 1 1.32 1.21c-.3.32-.62.63-.93.95q-3.56 3.54-7.09 7.09a1 1 0 0 1-.68.35.94.94 0 0 1-.72-.3L6.76 9.84C6.4 9.47 6 9.11 5.67 8.75A1 1 0 0 1 5.4 8Z"/></svg>