<svg width="26" height="26" viewBox="0 0 26 26" fill="none" xmlns="http://www.w3.org/2000/svg"><path d="M2 13C1.987 6.947 6.952 1.993 13.018 2 19.04 2.007 24.027 6.943 24 13.051 23.974 19.078 19.029 24.03 12.944 24 6.908 23.97 1.988 19.026 2 13ZM13.01 2.957C7.489 2.95 2.969 7.457 2.956 12.985c-.013 5.523 4.51 10.055 10.04 10.059 5.521.003 10.04-4.51 10.048-10.036.008-5.52-4.508-10.044-10.032-10.05Z" fill="#A5A5A5"/><path d="M12.52 9.169V5.404c0-.323.2-.535.49-.529a.471.471 0 0 1 .462.425c.006.072.007.143.005.215 0 2.362 0 4.724-.002 7.087a.448.448 0 0 0 .146.348c1.32 1.312 2.637 2.626 3.951 3.944.115.114.21.235.207.407a.453.453 0 0 1-.26.428.457.457 0 0 1-.5-.043 1.049 1.049 0 0 1-.127-.114l-4.162-4.158a.667.667 0 0 1-.212-.508c.005-1.246.002-2.491.002-3.737Z"/></svg>