<svg data-name="Слой 1" xmlns="http://www.w3.org/2000/svg" viewBox="0 0 14.85 18" width="14.85" height="18"><path d="M0 10.11V4.34a2 2 0 0 1 .67-1.6A2 2 0 0 1 2 2.24h1.17c.11 0 .15 0 .14-.14A1.92 1.92 0 0 1 3.86.63 1.93 1.93 0 0 1 5.27 0h7.62a2 2 0 0 1 2 1.9v11.74a2 2 0 0 1-.54 1.49 1.85 1.85 0 0 1-1.35.62h-1.31c-.12 0-.15 0-.15.15a2 2 0 0 1-1 1.82 1.81 1.81 0 0 1-1 .27H2a2 2 0 0 1-2-1.9v-1.35Zm1.28 0v5.81a.84.84 0 0 0 .14.51.77.77 0 0 0 .66.29h7.4a.71.71 0 0 0 .49-.14.73.73 0 0 0 .29-.64V4.25a.71.71 0 0 0-.75-.73H2a.81.81 0 0 0-.37.09.7.7 0 0 0-.39.7Zm12.29-2.23V2.07a.71.71 0 0 0-.77-.78H5.37a.83.83 0 0 0-.27 0 .7.7 0 0 0-.51.71c0 .21 0 .21.2.21h4.87a1.86 1.86 0 0 1 1.34.66 2 2 0 0 1 .54 1.46v9.9a.66.66 0 0 1 0 .14c0 .09 0 .11.12.11h1.17a1.12 1.12 0 0 0 .36-.09.71.71 0 0 0 .38-.7Z"/></svg>