<svg data-name="Слой 1" xmlns="http://www.w3.org/2000/svg" width="24.78" height="19" viewBox="0 0 24.78 19"><path d="M11.39.82H5.82A.46.46 0 0 1 5.39.4a.43.43 0 0 1 .36-.4h9.87a8.55 8.55 0 0 1 1.77.24 9.56 9.56 0 0 1 2.42.91 9.36 9.36 0 0 1 2.73 2.24 9.78 9.78 0 0 1 1.6 2.69 9.52 9.52 0 0 1 .51 1.9 4.36 4.36 0 0 1 .07.62v1.26a9.17 9.17 0 0 1-.33 2.15 9.37 9.37 0 0 1-1 2.49 9.49 9.49 0 0 1-2.27 2.54 9 9 0 0 1-2.84 1.46 12.29 12.29 0 0 1-1.36.34 9.39 9.39 0 0 1-2 .15H5.04a.46.46 0 0 1-.46-.25.41.41 0 0 1 .34-.57h6.47a9.72 9.72 0 0 1-4.18-3.75A9.49 9.49 0 0 1 7.5 4.13 9.84 9.84 0 0 1 11.39.82ZM23.96 9.5a8.67 8.67 0 1 0-8.66 8.71 8.68 8.68 0 0 0 8.66-8.71ZM2.48 7.44h2.05a.39.39 0 0 1 .38.21.39.39 0 0 1 0 .46.42.42 0 0 1-.35.15H.44A.44.44 0 0 1 0 7.85a.45.45 0 0 1 .45-.42Z"/><path d="M2.48 10.74h2.05a.42.42 0 0 1 .43.39.41.41 0 0 1-.41.43H.39a.41.41 0 1 1 0-.82h2.09ZM5.39 2.5h1.6a.43.43 0 0 1 .45.41.42.42 0 0 1-.44.42H3.74a.41.41 0 0 1-.43-.42.44.44 0 0 1 .43-.41ZM5.39 16.5H4.16a.43.43 0 0 1-.44-.41.42.42 0 0 1 .43-.42h2.44a.45.45 0 0 1 .44.42.46.46 0 0 1-.45.42c-.41-.01-.81-.01-1.19-.01ZM3.93 13.22h1a.41.41 0 0 1 .42.43.41.41 0 0 1-.39.39H2.85a.41.41 0 0 1-.39-.42.4.4 0 0 1 .41-.4ZM4.74 5.78h-1a.43.43 0 0 1-.46-.41.42.42 0 0 1 .46-.42h2a.42.42 0 0 1 .41.3.38.38 0 0 1-.14.43.68.68 0 0 1-.27.1ZM3.52 9.91h-1a.44.44 0 0 1-.46-.41.46.46 0 0 1 .45-.41h2a.41.41 0 0 1 .44.41.41.41 0 0 1-.44.41ZM1.25 13.22h.4a.41.41 0 1 1 0 .82H.83a.41.41 0 1 1 0-.82ZM2.06 5.78h-.41a.42.42 0 0 1 0-.83h.84a.43.43 0 0 1 .41.42.41.41 0 0 1-.42.41ZM2.66 16.5a.58.58 0 0 1-.45-.1.41.41 0 0 1 .23-.72h.49a.42.42 0 0 1 .38.43.42.42 0 0 1-.41.39ZM23.14 9.5a7.85 7.85 0 1 1-7.88-7.87 7.84 7.84 0 0 1 7.88 7.87ZM9 12.65l.67-.38a.56.56 0 0 1 .2-.08.41.41 0 0 1 .45.3.42.42 0 0 1-.2.47 5.66 5.66 0 0 1-.59.34c-.09.05-.08.1 0 .16l.21.3a6.93 6.93 0 0 0 1.62 1.53c.07.05.11.05.16 0s.22-.38.33-.58a.41.41 0 0 1 .54-.21.38.38 0 0 1 .2.56c-.08.17-.19.34-.28.51a2 2 0 0 0-.11.2 6.6 6.6 0 0 0 2.7.73s0-.1 0-.14v-.63a.42.42 0 1 1 .83 0v.64a.89.89 0 0 0 0 .15l1-.14a6.57 6.57 0 0 0 1.62-.54c.09 0 .12-.09.06-.18s-.23-.4-.33-.6a.39.39 0 0 1 .18-.56.4.4 0 0 1 .54.18l.33.57c0 .09.08.11.17 0a6.85 6.85 0 0 0 1.84-1.84c.05-.07 0-.09 0-.13s-.41-.23-.61-.36a.41.41 0 0 1-.19-.48.39.39 0 0 1 .41-.28 1.55 1.55 0 0 1 .4.17l.49.28a6.92 6.92 0 0 0 .72-2.72h-.82a.42.42 0 0 1-.38-.32.39.39 0 0 1 .22-.45.59.59 0 0 1 .23-.05h.75a6.84 6.84 0 0 0-.72-2.73l-.66.37a.54.54 0 0 1-.21.08.41.41 0 0 1-.43-.28.42.42 0 0 1 .19-.49l.61-.36c.08 0 .08-.06 0-.13l-.32-.43a6.78 6.78 0 0 0-1.52-1.41c-.09-.06-.12-.05-.17 0s-.22.4-.34.59a.39.39 0 0 1-.53.17.39.39 0 0 1-.19-.55c.11-.2.21-.41.34-.6s0-.15-.07-.2-.31-.14-.47-.19a9.45 9.45 0 0 0-1.07-.32c-.33-.07-.68-.1-1-.16v.81a.42.42 0 0 1-.41.43.44.44 0 0 1-.42-.42V2.5a7 7 0 0 0-2.7.72s0 .09.05.13c.11.19.22.37.32.56a.41.41 0 1 1-.71.4c-.12-.19-.23-.38-.34-.58s-.08-.08-.14 0-.4.28-.58.44A7.07 7.07 0 0 0 9.51 5.5c-.08.11 0 .16.05.21l.56.32a.41.41 0 0 1 .2.48.41.41 0 0 1-.47.29 1.66 1.66 0 0 1-.35-.18l-.49-.27a6.83 6.83 0 0 0-.72 2.72h.64c.38 0 .57.13.57.4s-.19.42-.57.42h-.54c-.07 0-.11 0-.1.09s0 .32 0 .47c.09.41.17.83.29 1.23s.29.63.42.97Z"/><path d="M15.7 8.33a1.22 1.22 0 0 1 .6 1.86.19.19 0 0 0 0 .23l1 1.71a.41.41 0 1 1-.71.41c-.33-.55-.65-1.11-1-1.67a.22.22 0 0 0-.24-.13 1.26 1.26 0 0 1-1.26-.84 1.24 1.24 0 0 1 .67-1.53c.09 0 .09-.09.09-.16V4.56a.42.42 0 1 1 .83 0v3.77Zm0 1.17a.41.41 0 0 0-.41-.41.41.41 0 1 0 0 .82.41.41 0 0 0 .41-.41Z"/></svg>