<svg width="22" height="22" viewBox="0 0 22 22" fill="none" xmlns="http://www.w3.org/2000/svg"><path d="M10.998 18.998c-2.508 0-5.017.006-7.525-.003-1.04-.005-1.795-.49-2.255-1.403a2.032 2.032 0 0 1-.217-.92C.999 13.428 1 10.184 1 6.94c.002-1.04.799-2.006 1.834-2.239.22-.049.445-.075.671-.077.875-.01 1.75-.006 2.624 0 .118 0 .177-.025.216-.147.123-.375.231-.76.406-1.112.425-.856 1.147-1.329 2.115-1.35 1.378-.029 2.758-.008 4.138-.007 1.12 0 2.002.618 2.371 1.656.096.27.194.538.275.813.036.123.098.147.216.147a321.65 321.65 0 0 1 2.68-.002c1.082.002 2.004.655 2.332 1.667.073.22.111.45.115.68.007 3.231.008 6.461.003 9.691-.003 1.136-.905 2.14-2.047 2.302a3.382 3.382 0 0 1-.47.035c-2.493.002-4.987.002-7.482 0Zm0-1.31h7.483c.717 0 1.18-.454 1.18-1.157V7.086c0-.704-.462-1.156-1.181-1.156h-3.207c-.361 0-.583-.158-.699-.489-.163-.471-.32-.945-.489-1.416a1.05 1.05 0 0 0-.393-.514 1.085 1.085 0 0 0-.626-.194c-1.379-.002-2.758-.002-4.138 0a1.087 1.087 0 0 0-.625.194c-.183.127-.32.307-.393.514-.165.462-.318.928-.48 1.39-.129.37-.338.514-.736.514H3.473c-.663.001-1.139.466-1.139 1.116v9.527c-.002.077.005.154.02.23.123.553.548.885 1.134.885 2.503.002 5.007.002 7.51.002Z"/><path d="M11 16.384c-2.76 0-5.002-2.195-5.002-4.896 0-2.71 2.238-4.91 4.99-4.907.659-.001 1.311.126 1.92.372.608.247 1.161.61 1.626 1.067a4.9 4.9 0 0 1 1.086 1.596c.25.597.38 1.236.378 1.882-.003 2.693-2.245 4.886-4.998 4.886Zm3.662-4.897c-.013-2-1.623-3.576-3.62-3.594-2.08-.018-3.712 1.596-3.708 3.631.004 1.95 1.67 3.555 3.683 3.55 2-.004 3.649-1.626 3.645-3.587Zm2.997-4.253c.132 0 .26.038.37.109a.64.64 0 0 1 .107 1.004.67.67 0 0 1-.724.147.664.664 0 0 1-.3-.238.645.645 0 0 1 .076-.826.676.676 0 0 1 .471-.196Z"/></svg>