<svg width="26" height="26" viewBox="0 0 26 26" fill="none" xmlns="http://www.w3.org/2000/svg"><path d="M13.06.35C20.053.368 25.72 6.055 25.7 13.033c-.021 6.978-5.724 12.646-12.688 12.617C6.04 25.62.374 19.929.4 12.976.425 6 6.108.332 13.06.35ZM14.713 13c-.056.061-.09.1-.127.138A8687.637 8687.637 0 0 1 11.4 16.32c-.428.429-.866.85-1.273 1.298-.312.343-.316.847-.063 1.23a1.062 1.062 0 0 0 1.14.437c.32-.08.525-.316.743-.533l4.92-4.917c.21-.211.365-.444.386-.754.025-.372-.128-.66-.383-.914a1922.848 1922.848 0 0 1-3.69-3.687c-.517-.517-1.019-1.05-1.561-1.54-.593-.535-1.506-.227-1.7.548-.105.428.06.77.358 1.069a3359.36 3359.36 0 0 1 4.276 4.275c.05.05.098.102.16.168Z"/></svg>