<svg width="24" height="24" viewBox="0 0 24 24" fill="none" xmlns="http://www.w3.org/2000/svg"><path d="M8.93 11.737v-.084c.003-.874.002-1.748.012-2.621.004-.34.009-.678-.08-1.01a1.982 1.982 0 0 0-.32-.637c-.157-.221-.333-.435-.449-.674-.35-.72.103-1.515.932-1.668.122-.024.246-.036.37-.038 1.266-.003 2.531 0 3.797-.003.233 0 .46.026.675.11.362.144.56.416.666.756.103.328.135.666.133 1.006-.008 1.25-.02 2.499-.031 3.749 0 .056.008.112.014.205.096-.084.175-.137.233-.206.322-.383.661-.756.954-1.159.711-.976 1.297-2.02 1.812-3.097.092-.192.174-.39.291-.57.34-.52.858-.778 1.5-.788.895-.014 1.79-.008 2.683 0 .35.003.682.09.958.302.435.334.529.776.422 1.264-.16.73-.549 1.372-.93 2.014a38.67 38.67 0 0 1-2.465 3.616c-.194.255-.183.194.024.403.652.66 1.322 1.308 1.965 1.978.583.607 1.126 1.246 1.55 1.965.214.363.366.742.353 1.17-.017.536-.442 1.05-1 1.19-.244.06-.497.09-.75.088-.774-.003-1.547-.008-2.32 0-.586.006-1.094-.174-1.504-.553-.454-.42-.883-.864-1.316-1.302-.567-.572-1.155-1.125-1.833-1.584-.182-.123-.368-.243-.602-.31a.946.946 0 0 0-.02.115 5.398 5.398 0 0 0-.009.25l-.014 1.43c-.001.207.018.415.003.621-.04.559-.378.916-.922 1.113-.518.188-1.062.223-1.61.22-1.343-.009-2.594-.344-3.77-.934-1.248-.627-2.308-1.473-3.26-2.442-.974-.992-1.802-2.083-2.535-3.239A21.782 21.782 0 0 1 .627 8.65C.43 8.138.272 7.612.116 7.087a2.467 2.467 0 0 1-.113-.809C.03 5.62.469 5.15 1.158 5.046c.192-.027.387-.041.582-.041.784-.004 1.57-.002 2.354 0 .78.002 1.323.347 1.623 1.01.19.418.34.85.519 1.273.648 1.518 1.409 2.98 2.486 4.28.053.065.114.125.17.187l.038-.018Zm.72-5.332c.035.051.052.08.073.104.488.587.703 1.266.716 1.994.02 1.177.008 2.354.003 3.53.003.263-.04.524-.126.774-.147.407-.499.656-.956.688-.389.026-.707-.12-1.003-.327-.432-.302-.777-.683-1.093-1.085-.648-.822-1.172-1.71-1.645-2.624a22.14 22.14 0 0 1-1.037-2.3c-.071-.188-.146-.375-.224-.561-.044-.107-.107-.193-.251-.193-.828.002-1.656.002-2.484 0-.082 0-.115.025-.095.104.077.297.136.599.23.89.232.718.533 1.411.866 2.093.74 1.515 1.628 2.947 2.726 4.261.82.98 1.735 1.87 2.835 2.584a7.91 7.91 0 0 0 2.426 1.073c.64.156 1.302.215 1.961.175.152-.009.302-.037.452-.056.096-.011.125-.06.123-.149-.007-.47-.01-.94-.01-1.41 0-.462-.017-.926.126-1.377.1-.316.293-.562.638-.676.45-.15.899-.127 1.34.026.508.175.937.471 1.352.789.713.548 1.346 1.172 1.963 1.81.264.273.532.542.805.807.181.175.4.265.672.249.25-.015.5-.003.75-.003h1.547c.153 0 .164-.016.113-.151a.286.286 0 0 0-.025-.05c-.151-.24-.285-.493-.458-.72-.696-.914-1.519-1.727-2.343-2.537-.3-.295-.607-.588-.877-.907-.258-.303-.371-.662-.273-1.056.064-.26.202-.486.356-.707.686-.984 1.379-1.965 2.055-2.956.376-.552.716-1.125.988-1.73.051-.115.089-.235.137-.365-.059-.005-.089-.01-.12-.01h-2.377c-.164 0-.269.065-.337.205-.214.443-.424.89-.656 1.325-.675 1.264-1.438 2.476-2.434 3.546-.41.44-.89.811-1.507.977-.498.134-.948-.002-1.216-.453-.176-.298-.205-.624-.207-.953-.006-1.497-.011-2.995-.014-4.492 0-.153 0-.153-.168-.153l-3.15-.002h-.168Z"/></svg>