<svg width="45" height="22" viewBox="0 0 45 22" fill="none" xmlns="http://www.w3.org/2000/svg"><path d="M41.374 12.014h-.395c-13.19 0-26.38 0-39.57-.003a3.414 3.414 0 0 1-.638-.057A.988.988 0 0 1 0 11a.987.987 0 0 1 .786-.942c.21-.038.424-.057.638-.057 13.17-.003 26.341-.003 39.512 0h.522c-.13-.141-.2-.223-.277-.299a13952.7 13952.7 0 0 0-8.072-7.868c-.352-.342-.541-.718-.352-1.204.23-.592 1.028-.835 1.523-.426.47.385.894.82 1.33 1.243 2.968 2.888 5.936 5.778 8.905 8.67.644.628.65 1.142.01 1.763l-10.002 9.739c-.473.46-1.033.51-1.488.136a.943.943 0 0 1-.158-1.307c.109-.135.226-.263.352-.383 2.647-2.585 5.297-5.167 7.95-7.745.075-.073.18-.114.273-.17l-.078-.135Z"/></svg>