<svg width="24" height="24" viewBox="0 0 24 24" fill="none" xmlns="http://www.w3.org/2000/svg"><path d="M11.96 3c1.881.051 3.736.097 5.59.156.797.025 1.592.07 2.386.122.566.036 1.123.131 1.643.375.845.396 1.471.997 1.813 1.872a7.16 7.16 0 0 1 .472 2.244c.038.736.112 1.472.123 2.21.02 1.367.02 2.735 0 4.104-.009.672-.068 1.342-.114 2.013-.024.35-.044.703-.11 1.047-.153.803-.363 1.59-.89 2.25a3.518 3.518 0 0 1-1.457 1.07 3.867 3.867 0 0 1-1.241.268c-1.392.076-2.784.143-4.177.192-1.19.043-2.38.076-3.571.077-1.254.001-2.508-.038-3.76-.065a71.817 71.817 0 0 1-1.756-.056c-.936-.043-1.872-.08-2.806-.15-.603-.044-1.2-.145-1.756-.405-.773-.363-1.347-.92-1.685-1.705-.336-.775-.462-1.59-.529-2.43-.164-2.056-.145-4.116-.113-6.174.015-.953.08-1.909.184-2.856.087-.792.312-1.562.746-2.246.31-.49.744-.86 1.252-1.143.405-.225.838-.384 1.3-.423.837-.07 1.673-.145 2.511-.174 1.99-.071 3.981-.118 5.946-.173Zm.135 1.4c-1.796.044-3.483.08-5.169.13-.788.023-1.575.08-2.363.116-.434.02-.865.046-1.282.18-.501.16-.91.449-1.174.9a3.875 3.875 0 0 0-.498 1.591 43.516 43.516 0 0 0-.167 2.649 57.295 57.295 0 0 0 .029 4.902c.047.915.037 1.841.317 2.73.094.298.188.6.382.853.358.47.854.721 1.43.797.64.085 1.286.15 1.933.183 1.08.055 2.16.084 3.242.11 1.234.03 2.467.063 3.701.061 1.214-.002 2.429-.035 3.642-.074 1.16-.037 2.318-.091 3.476-.152.338-.02.675-.063 1.007-.128.495-.094.896-.36 1.195-.757.324-.43.456-.946.553-1.46.084-.442.114-.896.145-1.347.11-1.597.123-3.197.094-4.797-.02-1.008-.088-2.014-.131-3.022a6.21 6.21 0 0 0-.328-1.71c-.205-.611-.619-1.017-1.203-1.261-.403-.169-.836-.215-1.27-.239-.729-.04-1.457-.084-2.187-.106-1.83-.057-3.657-.102-5.374-.149Z"/><path d="M8.954 11.764V8.982c0-.305.098-.567.331-.773.322-.285.774-.313 1.164-.1a2516.513 2516.513 0 0 1 5.166 2.798c.24.13.424.304.526.565.139.358.018.858-.308 1.067-.333.213-.684.397-1.034.584a1412.39 1412.39 0 0 1-4.343 2.31c-.421.226-.827.191-1.174-.101a.912.912 0 0 1-.32-.613 1.908 1.908 0 0 1-.008-.22v-2.735Zm5.362.03-3.94-2.135v4.232l3.94-2.097Z"/></svg>