<svg width="18" height="18" viewBox="0 0 18 18" fill="none" xmlns="http://www.w3.org/2000/svg"><path d="m2 16.5.267-.979c.255-.927.512-1.854.764-2.782a.239.239 0 0 0-.021-.163 7.317 7.317 0 0 1-.93-3.086 7.272 7.272 0 0 1 .93-4.173A7.38 7.38 0 0 1 5.934 2.42a7.28 7.28 0 0 1 2.906-.888 7.416 7.416 0 0 1 3.724.605 7.425 7.425 0 0 1 3.031 2.456 7.098 7.098 0 0 1 1.32 3.219c.3 2.1-.189 4.006-1.493 5.688-1.017 1.312-2.343 2.184-3.95 2.622a7.335 7.335 0 0 1-3.184.152 7.58 7.58 0 0 1-2.237-.75.288.288 0 0 0-.19-.022c-1.233.32-2.467.641-3.7.965-.043.012-.087.018-.161.033Zm1.796-1.766.097-.023c.712-.186 1.423-.373 2.137-.552a.357.357 0 0 1 .22.032c.331.158.649.349.988.486a6.032 6.032 0 0 0 3.536.315c1.407-.289 2.583-.98 3.5-2.08 1.254-1.504 1.696-3.235 1.348-5.154-.216-1.19-.775-2.216-1.608-3.097-1.681-1.774-4.382-2.388-6.669-1.507-1.415.547-2.506 1.475-3.24 2.797-.761 1.363-.96 2.817-.629 4.34.162.746.469 1.43.88 2.072a.274.274 0 0 1 .034.195c-.082.327-.176.65-.265.975-.108.393-.215.786-.33 1.2Z"/><path d="M7.09 5.504c.419.006.457.033.617.422.175.423.347.848.53 1.268.07.159.064.297-.039.433-.146.193-.291.387-.44.578-.114.147-.124.214-.03.373.607 1.021 1.458 1.761 2.569 2.198.165.064.254.047.367-.088.193-.23.383-.463.569-.699.122-.153.196-.191.377-.115.326.138.647.291.969.442.2.094.396.197.595.294.1.05.147.128.146.24-.004.554-.174 1.01-.675 1.324-.636.398-1.292.406-1.988.204C9 11.896 7.741 10.876 6.724 9.522c-.318-.425-.626-.855-.813-1.358-.265-.717-.257-1.41.174-2.069.051-.076.108-.149.169-.217.287-.332.393-.379.835-.374Z"/></svg>