<svg width="24" height="24" viewBox="0 0 24 24" fill="none" xmlns="http://www.w3.org/2000/svg"><path d="M1 11.997c.028-1.458.046-2.916.085-4.375.026-1.002.16-1.99.547-2.928.666-1.606 1.828-2.687 3.47-3.257.888-.308 1.81-.421 2.74-.425 2.755-.015 5.512-.015 8.268-.002.963.006 1.922.104 2.843.427 1.956.684 3.191 2.04 3.74 4.033.227.824.3 1.67.302 2.522.005 2.6.005 5.2 0 7.8-.003 1.025-.074 2.045-.402 3.025-.721 2.152-2.218 3.451-4.415 3.92a11.17 11.17 0 0 1-2.132.22c-2.212.039-4.425.048-6.638.04a28.277 28.277 0 0 1-2.746-.13c-1.879-.19-3.441-.985-4.517-2.596a5.754 5.754 0 0 1-.939-2.6c-.103-.939-.142-1.887-.17-2.832-.027-.946-.005-1.895-.005-2.842H1Zm11.03 9.043v-.027c.917 0 1.835.016 2.752-.004.99-.021 1.985.006 2.962-.2 1.563-.33 2.591-1.247 3.026-2.805.176-.63.216-1.276.235-1.925.082-2.72.086-5.44-.003-8.16a10.225 10.225 0 0 0-.164-1.624c-.319-1.632-1.29-2.671-2.913-3.076-.796-.199-1.612-.215-2.424-.222-2.041-.018-4.082-.022-6.122-.012-.985.003-1.972-.006-2.945.178-1.593.303-2.669 1.196-3.119 2.787-.22.776-.252 1.576-.258 2.372a506.323 506.323 0 0 0-.016 6.49c.003.947 0 1.895.182 2.831.308 1.576 1.199 2.635 2.762 3.083.66.19 1.341.236 2.023.25 1.34.026 2.682.043 4.022.064Z"/><path d="M17.688 11.98a5.665 5.665 0 0 1-5.646 5.673c-3.122.009-5.668-2.542-5.666-5.67a5.66 5.66 0 0 1 5.656-5.66c3.121-.003 5.648 2.527 5.656 5.658Zm-5.657 3.673a3.657 3.657 0 0 0 3.383-2.264 3.672 3.672 0 0 0-.794-3.996 3.659 3.659 0 0 0-6.248 2.596 3.666 3.666 0 0 0 2.258 3.386c.445.184.92.278 1.401.278ZM19.228 6.095a1.32 1.32 0 0 1-1.308 1.309 1.316 1.316 0 0 1-1.327-1.29A1.31 1.31 0 0 1 17.9 4.778a1.305 1.305 0 0 1 1.328 1.316Z"/></svg>