<svg width="18" height="18" viewBox="0 0 18 18" fill="none" xmlns="http://www.w3.org/2000/svg"><path d="M11.25 7.5a2.25 2.25 0 1 1-4.5 0 2.25 2.25 0 0 1 4.5 0Z"/><path fill-rule="evenodd" clip-rule="evenodd" d="M3.75 7.5c0 3.938 5.25 8.25 5.25 8.25s5.25-4.313 5.25-8.25A5.246 5.246 0 0 0 9 2.25 5.246 5.246 0 0 0 3.75 7.5Zm1.5 0A3.746 3.746 0 0 1 9 3.75a3.746 3.746 0 0 1 3.75 3.75c0 1.396-.987 3.097-2.276 4.64A21.167 21.167 0 0 1 9 13.723c-.43-.418-.954-.96-1.474-1.583C6.236 10.597 5.25 8.896 5.25 7.5Z"/></svg>