<svg xmlns="http://www.w3.org/2000/svg" viewBox="0 0 18 18" xml:space="preserve"><path d="M3.75 8.991c0-2.229-.002-4.459.001-6.688.001-.658.3-1.139.898-1.424a1.39 1.39 0 0 1 .6-.128c2.501-.001 5.002-.002 7.504 0a1.496 1.496 0 0 1 1.496 1.505v13.471c0 .868-.665 1.52-1.549 1.521H6.236c-.384 0-.769.011-1.151-.016-.688-.049-1.272-.651-1.324-1.337a3.507 3.507 0 0 1-.011-.271V8.991zm1.507-6.737c-.002.035-.005.065-.005.096 0 4.431 0 8.862-.002 13.294 0 .08.017.107.103.107 2.433-.002 4.865-.002 7.298 0 .086 0 .103-.028.103-.107-.002-4.428-.002-8.856 0-13.284 0-.093-.03-.113-.117-.112-.425.004-.849.005-1.274 0-.089-.001-.114.026-.121.113a1.485 1.485 0 0 1-1.501 1.388H8.28c-.826 0-1.459-.583-1.522-1.406-.006-.073-.026-.097-.1-.096-.437.003-.874.001-1.311.001l-.09.006z"/></svg>