<svg width="18" height="18" viewBox="0 0 18 18" fill="none" xmlns="http://www.w3.org/2000/svg"><path d="M4.503 2c.774.012.844.066 1.14.844.325.846.64 1.695.978 2.534.128.318.117.594-.072.866-.27.386-.537.773-.812 1.154-.212.295-.229.43-.055.747 1.12 2.041 2.689 3.52 4.74 4.392.303.129.468.094.677-.175.356-.46.706-.926 1.05-1.397.224-.306.361-.383.695-.23.603.275 1.195.581 1.788.883.37.188.732.393 1.099.588.185.1.27.256.269.48-.007 1.106-.322 2.018-1.246 2.646-1.173.796-2.384.812-3.668.407-3.06-.963-5.382-3.003-7.257-5.708-.588-.85-1.156-1.709-1.5-2.714-.489-1.433-.474-2.82.32-4.135.095-.152.199-.297.311-.434.53-.666.725-.758 1.543-.747Z"/></svg>