<svg id="Слой_1" data-name="Слой 1" xmlns="http://www.w3.org/2000/svg" width="25.96" height="19" viewBox="0 0 25.96 19"><path d="M27.74 13h.7a.48.48 0 0 1 .54.54v5a.48.48 0 0 1-.54.55h-.7v3.85a2.61 2.61 0 0 1-1.48 2.32 2.83 2.83 0 0 1-1.4.3h-19a2.7 2.7 0 0 1-2.17-.93 2.35 2.35 0 0 1-.63-1.29 8.85 8.85 0 0 1-.06-.95V9.28A2.75 2.75 0 0 1 5.86 6.5h19a2.84 2.84 0 0 1 1.69.5 2.48 2.48 0 0 1 1.06 1.49 4.25 4.25 0 0 1 .13.87v3.41Zm-1-4.22a1.5 1.5 0 0 0-.42-.78 1.87 1.87 0 0 0-1.45-.57h-19a2 2 0 0 0-1.2.33 1.84 1.84 0 0 0-.78 1.56v13.42a1 1 0 0 0 0 .17 3.16 3.16 0 0 0 .16.64 1.8 1.8 0 0 0 1.81 1.05h19.05a1.81 1.81 0 0 0 .57-.06 1.79 1.79 0 0 0 1.35-1.84v-3.44c0-.23 0-.23-.22-.23h-3.67a3 3 0 0 1-3.09-2.48 2.86 2.86 0 0 1 .48-2.26A3 3 0 0 1 22.9 13h3.72c.17 0 .21-.05.21-.21v-2.76c0-.33 0-.33-.34-.33H6.76a1.21 1.21 0 0 1-.33-.07.43.43 0 0 1-.21-.49.44.44 0 0 1 .43-.35h20.1Zm-1.4 5.12H23a3.78 3.78 0 0 0-.83.12 2.06 2.06 0 0 0-1.43 2.5 2.09 2.09 0 0 0 2.09 1.64h5c.15 0 .19-.05.19-.18v-3.9c0-.15-.06-.19-.2-.18Z" transform="translate(-3.02 -6.5)"/><path d="M24.11 16A1.13 1.13 0 0 1 23 17.14 1.16 1.16 0 0 1 21.83 16 1.14 1.14 0 0 1 23 14.86 1.13 1.13 0 0 1 24.11 16Z" transform="translate(-3.02 -6.5)"/></svg>