<svg width="18" height="18" viewBox="0 0 18 18" fill="none" xmlns="http://www.w3.org/2000/svg"><path d="m7.266 14.378.04-.569c.062-.86.123-1.72.189-2.58a.239.239 0 0 1 .072-.146c1.889-1.69 3.779-3.378 5.67-5.065.092-.077.18-.16.262-.246.031-.034.052-.103.038-.142-.01-.03-.087-.063-.126-.053-.122.03-.25.058-.355.122-.788.482-1.571.973-2.356 1.461a6287.345 6287.345 0 0 1-4.94 3.071.204.204 0 0 1-.15.02c-1.043-.318-2.086-.64-3.128-.966a1.162 1.162 0 0 1-.353-.19c-.16-.122-.168-.289-.042-.448.125-.159.299-.254.483-.326.875-.338 1.752-.673 2.63-1.005a35972.003 35972.003 0 0 1 9.846-3.748c.07-.028.145-.048.22-.06.43-.06.734.187.735.621a3.2 3.2 0 0 1-.085.655 3572.452 3572.452 0 0 1-1.873 8.722c-.072.336-.135.674-.224 1.007-.15.56-.543.732-1.059.458-.2-.107-.379-.256-.564-.392a929.152 929.152 0 0 1-2.628-1.915c-.078-.057-.12-.053-.19.013-.514.495-1.033.984-1.549 1.476a.742.742 0 0 1-.563.225Z"/></svg>