<?xml version="1.0" encoding="utf-8"?><svg xmlns="http://www.w3.org/2000/svg" xmlns:xlink="http://www.w3.org/1999/xlink"><symbol viewBox="0 0 20 32" id="arrow" xmlns="http://www.w3.org/2000/svg"><path d="M14.378 15.478c-.164-.147-.304-.276-.45-.405L.98 3.973C.043 3.172-.167 2.03.417 1.072 1.145-.123 2.687-.36 3.79.571c1.6 1.36 3.192 2.73 4.788 4.097l10.468 8.963c.42.359.766.758.89 1.313.207.936-.095 1.694-.81 2.305l-3.562 3.045L3.706 30.44c-.971.832-2.34.766-3.149-.165-.84-.965-.719-2.334.276-3.188 4.423-3.786 8.845-7.574 13.267-11.362.09-.072.17-.15.278-.248z"/></symbol><symbol viewBox="0 0 26 26" id="arrow-circle" xmlns="http://www.w3.org/2000/svg"><path d="M13.06.35c6.993.018 12.66 5.705 12.64 12.683-.021 6.978-5.724 12.646-12.688 12.617C6.04 25.62.374 19.929.4 12.976.425 6 6.108.332 13.06.35zM14.713 13c-.056.061-.09.1-.127.138A8687.637 8687.637 0 0111.4 16.32c-.428.429-.866.85-1.273 1.298-.312.343-.316.847-.063 1.23a1.062 1.062 0 001.14.437c.32-.08.525-.316.743-.533l4.92-4.917c.21-.211.365-.444.386-.754.025-.372-.128-.66-.383-.914a1922.848 1922.848 0 01-3.69-3.687c-.517-.517-1.019-1.05-1.561-1.54-.593-.535-1.506-.227-1.7.548-.105.428.06.77.358 1.069a3359.36 3359.36 0 014.276 4.275c.05.05.098.102.16.168z"/></symbol><symbol viewBox="0 0 45 22" id="arrow-right" xmlns="http://www.w3.org/2000/svg"><path d="M41.374 12.014h-.395c-13.19 0-26.38 0-39.57-.003a3.414 3.414 0 01-.638-.057A.988.988 0 010 11a.987.987 0 01.786-.942c.21-.038.424-.057.638-.057 13.17-.003 26.341-.003 39.512 0h.522c-.13-.141-.2-.223-.277-.299a13952.7 13952.7 0 00-8.072-7.868c-.352-.342-.541-.718-.352-1.204.23-.592 1.028-.835 1.523-.426.47.385.894.82 1.33 1.243 2.968 2.888 5.936 5.778 8.905 8.67.644.628.65 1.142.01 1.763l-10.002 9.739c-.473.46-1.033.51-1.488.136a.943.943 0 01-.158-1.307c.109-.135.226-.263.352-.383a4462.91 4462.91 0 017.95-7.745c.075-.073.18-.114.273-.17l-.078-.135z"/></symbol><symbol viewBox="0 0 22 22" id="camera" xmlns="http://www.w3.org/2000/svg"><path d="M10.998 18.998c-2.508 0-5.017.006-7.525-.003-1.04-.005-1.795-.49-2.255-1.403a2.032 2.032 0 01-.217-.92C.999 13.428 1 10.184 1 6.94c.002-1.04.799-2.006 1.834-2.239.22-.049.445-.075.671-.077.875-.01 1.75-.006 2.624 0 .118 0 .177-.025.216-.147.123-.375.231-.76.406-1.112.425-.856 1.147-1.329 2.115-1.35 1.378-.029 2.758-.008 4.138-.007 1.12 0 2.002.618 2.371 1.656.096.27.194.538.275.813.036.123.098.147.216.147a321.65 321.65 0 012.68-.002c1.082.002 2.004.655 2.332 1.667.073.22.111.45.115.68.007 3.231.008 6.461.003 9.691-.003 1.136-.905 2.14-2.047 2.302a3.382 3.382 0 01-.47.035c-2.493.002-4.987.002-7.482 0zm0-1.31h7.483c.717 0 1.18-.454 1.18-1.157V7.086c0-.704-.462-1.156-1.181-1.156h-3.207c-.361 0-.583-.158-.699-.489-.163-.471-.32-.945-.489-1.416a1.05 1.05 0 00-.393-.514 1.085 1.085 0 00-.626-.194c-1.379-.002-2.758-.002-4.138 0a1.087 1.087 0 00-.625.194c-.183.127-.32.307-.393.514-.165.462-.318.928-.48 1.39-.129.37-.338.514-.736.514H3.473c-.663.001-1.139.466-1.139 1.116v9.527c-.002.077.005.154.02.23.123.553.548.885 1.134.885 2.503.002 5.007.002 7.51.002z"/><path d="M11 16.384c-2.76 0-5.002-2.195-5.002-4.896 0-2.71 2.238-4.91 4.99-4.907a5.106 5.106 0 011.92.372 5.01 5.01 0 011.626 1.067 4.9 4.9 0 011.086 1.596c.25.597.38 1.236.378 1.882-.003 2.693-2.245 4.886-4.998 4.886zm3.662-4.897c-.013-2-1.623-3.576-3.62-3.594-2.08-.018-3.712 1.596-3.708 3.631.004 1.95 1.67 3.555 3.683 3.55 2-.004 3.649-1.626 3.645-3.587zm2.997-4.253c.132 0 .26.038.37.109a.64.64 0 01.107 1.004.67.67 0 01-.724.147.664.664 0 01-.3-.238.645.645 0 01.076-.826.676.676 0 01.471-.196z"/></symbol><symbol viewBox="0 0 18 18" id="check" xmlns="http://www.w3.org/2000/svg"><path d="M9 0a8.89 8.89 0 012.29.3A8.6 8.6 0 0113 .93a.92.92 0 01.5.88.89.89 0 01-.7.81 1 1 0 01-.73-.13 7.19 7.19 0 00-8.39 1.67 6.76 6.76 0 00-1.52 2.6 7.18 7.18 0 00-.34 2.72 7.18 7.18 0 004.27 6.1 7.27 7.27 0 001.83.54 7.57 7.57 0 002 0 7.1 7.1 0 003.63-1.53 7.19 7.19 0 002.07-2.69 7.42 7.42 0 00.54-1.85 7.65 7.65 0 000-1.85.9.9 0 111.78-.2 9.37 9.37 0 010 2 9 9 0 01-.32 1.54A8.84 8.84 0 0116 14.63a9 9 0 01-4.71 3.07 9.17 9.17 0 01-3.38.24A9.53 9.53 0 016 17.5a8.94 8.94 0 01-4-2.77 8.83 8.83 0 01-1.53-2.86 9.13 9.13 0 01-.22-5A8.89 8.89 0 012 3.29 8.82 8.82 0 014.89 1 8.47 8.47 0 016.76.28 8.27 8.27 0 019 0z"/><path d="M5.4 8a.9.9 0 011.53-.54c.64.62 1.26 1.26 1.89 1.89.18.17.18.17.35 0l7.26-7.25a.9.9 0 111.32 1.21c-.3.32-.62.63-.93.95q-3.56 3.54-7.09 7.09a1 1 0 01-.68.35.94.94 0 01-.72-.3L6.76 9.84C6.4 9.47 6 9.11 5.67 8.75A1 1 0 015.4 8z"/></symbol><symbol viewBox="0 0 18 18" id="clock" xmlns="http://www.w3.org/2000/svg"><path d="M9 1.5C4.864 1.5 1.5 4.864 1.5 9s3.364 7.5 7.5 7.5 7.5-3.364 7.5-7.5S13.136 1.5 9 1.5zM9 15c-3.308 0-6-2.692-6-6s2.692-6 6-6 6 2.692 6 6-2.692 6-6 6z"/><path d="M9.75 5.25h-1.5v4.5h4.5v-1.5h-3v-3z"/></symbol><symbol viewBox="0 0 24 24" id="clock-basic" xmlns="http://www.w3.org/2000/svg"><path d="M12 2C6.486 2 2 6.486 2 12s4.486 10 10 10 10-4.486 10-10S17.514 2 12 2zm0 18c-4.411 0-8-3.589-8-8s3.589-8 8-8 8 3.589 8 8-3.589 8-8 8z"/><path d="M13 7h-2v6h6v-2h-4V7z"/></symbol><symbol viewBox="0 0 24.78 19" id="clock-fast" xmlns="http://www.w3.org/2000/svg"><path d="M11.39.82H5.82A.46.46 0 015.39.4a.43.43 0 01.36-.4h9.87a8.55 8.55 0 011.77.24 9.56 9.56 0 012.42.91 9.36 9.36 0 012.73 2.24 9.78 9.78 0 011.6 2.69 9.52 9.52 0 01.51 1.9 4.36 4.36 0 01.07.62v1.26a9.17 9.17 0 01-.33 2.15 9.37 9.37 0 01-1 2.49 9.49 9.49 0 01-2.27 2.54 9 9 0 01-2.84 1.46 12.29 12.29 0 01-1.36.34 9.39 9.39 0 01-2 .15H5.04a.46.46 0 01-.46-.25.41.41 0 01.34-.57h6.47a9.72 9.72 0 01-4.18-3.75A9.49 9.49 0 017.5 4.13 9.84 9.84 0 0111.39.82zM23.96 9.5a8.67 8.67 0 10-8.66 8.71 8.68 8.68 0 008.66-8.71zM2.48 7.44h2.05a.39.39 0 01.38.21.39.39 0 010 .46.42.42 0 01-.35.15H.44A.44.44 0 010 7.85a.45.45 0 01.45-.42z"/><path d="M2.48 10.74h2.05a.42.42 0 01.43.39.41.41 0 01-.41.43H.39a.41.41 0 110-.82h2.09zM5.39 2.5h1.6a.43.43 0 01.45.41.42.42 0 01-.44.42H3.74a.41.41 0 01-.43-.42.44.44 0 01.43-.41zm0 14H4.16a.43.43 0 01-.44-.41.42.42 0 01.43-.42h2.44a.45.45 0 01.44.42.46.46 0 01-.45.42c-.41-.01-.81-.01-1.19-.01zm-1.46-3.28h1a.41.41 0 01.42.43.41.41 0 01-.39.39H2.85a.41.41 0 01-.39-.42.4.4 0 01.41-.4zm.81-7.44h-1a.43.43 0 01-.46-.41.42.42 0 01.46-.42h2a.42.42 0 01.41.3.38.38 0 01-.14.43.68.68 0 01-.27.1zM3.52 9.91h-1a.44.44 0 01-.46-.41.46.46 0 01.45-.41h2a.41.41 0 01.44.41.41.41 0 01-.44.41zm-2.27 3.31h.4a.41.41 0 110 .82H.83a.41.41 0 110-.82zm.81-7.44h-.41a.42.42 0 010-.83h.84a.43.43 0 01.41.42.41.41 0 01-.42.41zm.6 10.72a.58.58 0 01-.45-.1.41.41 0 01.23-.72h.49a.42.42 0 01.38.43.42.42 0 01-.41.39zm20.48-7a7.85 7.85 0 11-7.88-7.87 7.84 7.84 0 017.88 7.87zM9 12.65l.67-.38a.56.56 0 01.2-.08.41.41 0 01.45.3.42.42 0 01-.2.47 5.66 5.66 0 01-.59.34c-.09.05-.08.1 0 .16l.21.3a6.93 6.93 0 001.62 1.53c.07.05.11.05.16 0s.22-.38.33-.58a.41.41 0 01.54-.21.38.38 0 01.2.56c-.08.17-.19.34-.28.51a2 2 0 00-.11.2 6.6 6.6 0 002.7.73v-.77a.42.42 0 11.83 0v.64a.89.89 0 000 .15l1-.14a6.57 6.57 0 001.62-.54c.09 0 .12-.09.06-.18s-.23-.4-.33-.6a.39.39 0 01.18-.56.4.4 0 01.54.18l.33.57c0 .09.08.11.17 0a6.85 6.85 0 001.84-1.84c.05-.07 0-.09 0-.13s-.41-.23-.61-.36a.41.41 0 01-.19-.48.39.39 0 01.41-.28 1.55 1.55 0 01.4.17l.49.28a6.92 6.92 0 00.72-2.72h-.82a.42.42 0 01-.38-.32.39.39 0 01.22-.45.59.59 0 01.23-.05h.75a6.84 6.84 0 00-.72-2.73l-.66.37a.54.54 0 01-.21.08.41.41 0 01-.43-.28.42.42 0 01.19-.49l.61-.36c.08 0 .08-.06 0-.13l-.32-.43a6.78 6.78 0 00-1.52-1.41c-.09-.06-.12-.05-.17 0s-.22.4-.34.59a.39.39 0 01-.53.17.39.39 0 01-.19-.55c.11-.2.21-.41.34-.6s0-.15-.07-.2-.31-.14-.47-.19a9.45 9.45 0 00-1.07-.32c-.33-.07-.68-.1-1-.16v.81a.42.42 0 01-.41.43.44.44 0 01-.42-.42V2.5a7 7 0 00-2.7.72s0 .09.05.13c.11.19.22.37.32.56a.41.41 0 11-.71.4c-.12-.19-.23-.38-.34-.58s-.08-.08-.14 0-.4.28-.58.44A7.07 7.07 0 009.51 5.5c-.08.11 0 .16.05.21l.56.32a.41.41 0 01.2.48.41.41 0 01-.47.29 1.66 1.66 0 01-.35-.18l-.49-.27a6.83 6.83 0 00-.72 2.72h.64c.38 0 .57.13.57.4s-.19.42-.57.42h-.54c-.07 0-.11 0-.1.09s0 .32 0 .47c.09.41.17.83.29 1.23s.29.63.42.97z"/><path d="M15.7 8.33a1.22 1.22 0 01.6 1.86.19.19 0 000 .23l1 1.71a.41.41 0 11-.71.41c-.33-.55-.65-1.11-1-1.67a.22.22 0 00-.24-.13 1.26 1.26 0 01-1.26-.84 1.24 1.24 0 01.67-1.53c.09 0 .09-.09.09-.16V4.56a.42.42 0 11.83 0v3.77zm0 1.17a.41.41 0 00-.41-.41.41.41 0 100 .82.41.41 0 00.41-.41z"/></symbol><symbol viewBox="0 0 26 26" id="clock-thin" xmlns="http://www.w3.org/2000/svg"><path d="M2 13C1.987 6.947 6.952 1.993 13.018 2 19.04 2.007 24.027 6.943 24 13.051 23.974 19.078 19.029 24.03 12.944 24 6.908 23.97 1.988 19.026 2 13zM13.01 2.957C7.489 2.95 2.969 7.457 2.956 12.985c-.013 5.523 4.51 10.055 10.04 10.059 5.521.003 10.04-4.51 10.048-10.036.008-5.52-4.508-10.044-10.032-10.05z"/><path d="M12.52 9.169V5.404c0-.323.2-.535.49-.529a.471.471 0 01.462.425c.006.072.007.143.005.215 0 2.362 0 4.724-.002 7.087a.448.448 0 00.146.348 1224.3 1224.3 0 013.951 3.944c.115.114.21.235.207.407a.453.453 0 01-.26.428.457.457 0 01-.5-.043 1.049 1.049 0 01-.127-.114l-4.162-4.158a.667.667 0 01-.212-.508c.005-1.246.002-2.491.002-3.737z"/></symbol><symbol viewBox="0 0 32 32" id="close" xmlns="http://www.w3.org/2000/svg"><path d="M17.666 16l8.988-8.989a1.179 1.179 0 00-1.666-1.665L16 14.334 7.01 5.346A1.179 1.179 0 005.346 7.01L14.334 16l-8.988 8.988a1.179 1.179 0 001.665 1.666L16 17.666l8.988 8.988a1.179 1.179 0 001.666-1.666L17.666 16z"/></symbol><symbol viewBox="0 0 14.85 18" id="copy" xmlns="http://www.w3.org/2000/svg"><path d="M0 10.11V4.34a2 2 0 01.67-1.6A2 2 0 012 2.24h1.17c.11 0 .15 0 .14-.14A1.92 1.92 0 013.86.63 1.93 1.93 0 015.27 0h7.62a2 2 0 012 1.9v11.74a2 2 0 01-.54 1.49 1.85 1.85 0 01-1.35.62h-1.31c-.12 0-.15 0-.15.15a2 2 0 01-1 1.82 1.81 1.81 0 01-1 .27H2a2 2 0 01-2-1.9v-1.35zm1.28 0v5.81a.84.84 0 00.14.51.77.77 0 00.66.29h7.4a.71.71 0 00.49-.14.73.73 0 00.29-.64V4.25a.71.71 0 00-.75-.73H2a.81.81 0 00-.37.09.7.7 0 00-.39.7zm12.29-2.23V2.07a.71.71 0 00-.77-.78H5.37a.83.83 0 00-.27 0 .7.7 0 00-.51.71c0 .21 0 .21.2.21h4.87a1.86 1.86 0 011.34.66 2 2 0 01.54 1.46v9.9a.66.66 0 010 .14c0 .09 0 .11.12.11h1.17a1.12 1.12 0 00.36-.09.71.71 0 00.38-.7z"/></symbol><symbol viewBox="0 0 4 4" id="dot" xmlns="http://www.w3.org/2000/svg"><path d="M4 2c0 1.1-.9 2-2 2s-2-.9-2-2 .9-2 2-2 2 .9 2 2z"/></symbol><symbol viewBox="0 0 24 24" id="folder" xmlns="http://www.w3.org/2000/svg"><path d="M20 5h-7.586l-1.707-1.707A.997.997 0 0010 3H4c-1.103 0-2 .897-2 2v14c0 1.103.897 2 2 2h16c1.103 0 2-.897 2-2V7c0-1.103-.897-2-2-2zM4 19V7h16l.002 12H4z"/></symbol><symbol viewBox="0 0 24 24" id="instagram-outline" xmlns="http://www.w3.org/2000/svg"><path d="M1 11.997c.028-1.458.046-2.916.085-4.375.026-1.002.16-1.99.547-2.928.666-1.606 1.828-2.687 3.47-3.257.888-.308 1.81-.421 2.74-.425 2.755-.015 5.512-.015 8.268-.002.963.006 1.922.104 2.843.427 1.956.684 3.191 2.04 3.74 4.033.227.824.3 1.67.302 2.522.005 2.6.005 5.2 0 7.8-.003 1.025-.074 2.045-.402 3.025-.721 2.152-2.218 3.451-4.415 3.92a11.17 11.17 0 01-2.132.22 312.49 312.49 0 01-6.638.04 28.277 28.277 0 01-2.746-.13c-1.879-.19-3.441-.985-4.517-2.596a5.754 5.754 0 01-.939-2.6c-.103-.939-.142-1.887-.17-2.832-.027-.946-.005-1.895-.005-2.842H1zm11.03 9.043v-.027c.917 0 1.835.016 2.752-.004.99-.021 1.985.006 2.962-.2 1.563-.33 2.591-1.247 3.026-2.805.176-.63.216-1.276.235-1.925.082-2.72.086-5.44-.003-8.16a10.225 10.225 0 00-.164-1.624c-.319-1.632-1.29-2.671-2.913-3.076-.796-.199-1.612-.215-2.424-.222a446.216 446.216 0 00-6.122-.012c-.985.003-1.972-.006-2.945.178-1.593.303-2.669 1.196-3.119 2.787-.22.776-.252 1.576-.258 2.372a506.323 506.323 0 00-.016 6.49c.003.947 0 1.895.182 2.831.308 1.576 1.199 2.635 2.762 3.083.66.19 1.341.236 2.023.25 1.34.026 2.682.043 4.022.064z"/><path d="M17.688 11.98a5.665 5.665 0 01-5.646 5.673c-3.122.009-5.668-2.542-5.666-5.67a5.66 5.66 0 015.656-5.66c3.121-.003 5.648 2.527 5.656 5.658zm-5.657 3.673a3.657 3.657 0 003.383-2.264 3.672 3.672 0 00-.794-3.996 3.659 3.659 0 00-6.248 2.596 3.666 3.666 0 002.258 3.386c.445.184.92.278 1.401.278zm7.197-9.558a1.32 1.32 0 01-1.308 1.309 1.316 1.316 0 01-1.327-1.29A1.31 1.31 0 0117.9 4.778a1.305 1.305 0 011.328 1.316z"/></symbol><symbol viewBox="0 0 18 18" id="location-outline" xmlns="http://www.w3.org/2000/svg"><path d="M11.25 7.5a2.25 2.25 0 11-4.5 0 2.25 2.25 0 014.5 0z"/><path clip-rule="evenodd" d="M3.75 7.5c0 3.938 5.25 8.25 5.25 8.25s5.25-4.313 5.25-8.25A5.246 5.246 0 009 2.25 5.246 5.246 0 003.75 7.5zm1.5 0A3.746 3.746 0 019 3.75a3.746 3.746 0 013.75 3.75c0 1.396-.987 3.097-2.276 4.64A21.167 21.167 0 019 13.723c-.43-.418-.954-.96-1.474-1.583C6.236 10.597 5.25 8.896 5.25 7.5z"/></symbol><symbol viewBox="0 0 15 12" id="mail" xmlns="http://www.w3.org/2000/svg"><path d="M7.5 0h6a1.48 1.48 0 011.35.8 1.42 1.42 0 01.17.7v9A1.49 1.49 0 0113.5 12h-12A1.5 1.5 0 010 10.49v-9A1.49 1.49 0 011.5 0h6zm6 2.9h-.07L7.57 6.86a.12.12 0 01-.14 0L1.58 3l-.08-.1v7.6h11.91c.09 0 .09 0 .09-.09V2.9zM2.11 1.5h.05L7.5 5.07a.09.09 0 00.1 0l5.28-3.53h.06z"/></symbol><symbol viewBox="0 0 20 20" id="mail-fill" xmlns="http://www.w3.org/2000/svg"><path clip-rule="evenodd" d="M14.94 1A5.057 5.057 0 0120 6.05v7.9c0 2.79-2.27 5.05-5.06 5.05H5.06A5.057 5.057 0 010 13.95v-7.9A5.05 5.05 0 015.06 1h9.88zm1.59 6.54l.08-.08a.773.773 0 00-.01-1 .84.84 0 00-.53-.26.76.76 0 00-.56.2L11 10a1.566 1.566 0 01-2 0L4.5 6.4a.76.76 0 00-1 .07c-.27.27-.3.7-.07 1l.13.13 4.55 3.55a3.143 3.143 0 003.91 0l4.51-3.61z"/></symbol><symbol viewBox="0 0 18 18" id="mobile" xmlns="http://www.w3.org/2000/svg"><path d="M3.75 8.991c0-2.229-.002-4.459.001-6.688.001-.658.3-1.139.898-1.424a1.39 1.39 0 01.6-.128c2.501-.001 5.002-.002 7.504 0a1.496 1.496 0 011.496 1.505v13.471c0 .868-.665 1.52-1.549 1.521H6.236c-.384 0-.769.011-1.151-.016-.688-.049-1.272-.651-1.324-1.337a3.507 3.507 0 01-.011-.271V8.991zm1.507-6.737c-.002.035-.005.065-.005.096 0 4.431 0 8.862-.002 13.294 0 .08.017.107.103.107 2.433-.002 4.865-.002 7.298 0 .086 0 .103-.028.103-.107-.002-4.428-.002-8.856 0-13.284 0-.093-.03-.113-.117-.112-.425.004-.849.005-1.274 0-.089-.001-.114.026-.121.113a1.485 1.485 0 01-1.501 1.388H8.28c-.826 0-1.459-.583-1.522-1.406-.006-.073-.026-.097-.1-.096-.437.003-.874.001-1.311.001l-.09.006z"/></symbol><symbol viewBox="0 0 18 18" id="phone" xmlns="http://www.w3.org/2000/svg"><path d="M4.503 2c.774.012.844.066 1.14.844.325.846.64 1.695.978 2.534.128.318.117.594-.072.866-.27.386-.537.773-.812 1.154-.212.295-.229.43-.055.747 1.12 2.041 2.689 3.52 4.74 4.392.303.129.468.094.677-.175.356-.46.706-.926 1.05-1.397.224-.306.361-.383.695-.23.603.275 1.195.581 1.788.883.37.188.732.393 1.099.588.185.1.27.256.269.48-.007 1.106-.322 2.018-1.246 2.646-1.173.796-2.384.812-3.668.407-3.06-.963-5.382-3.003-7.257-5.708-.588-.85-1.156-1.709-1.5-2.714-.489-1.433-.474-2.82.32-4.135.095-.152.199-.297.311-.434.53-.666.725-.758 1.543-.747z"/></symbol><symbol viewBox="0 0 46 60" id="placeholder" xmlns="http://www.w3.org/2000/svg"><path d="M.001 24.132c-.01-5.25 1.077-9.436 3.47-13.25 2.812-4.488 6.7-7.664 11.675-9.484C18.433.197 21.823-.25 25.299.136c3.45.383 6.683 1.45 9.631 3.309 4.498 2.83 7.687 6.719 9.514 11.719 1.563 4.281 1.796 8.647.758 13.073-.758 3.233-2.204 6.148-4.19 8.803a12314.62 12314.62 0 00-16.803 22.544 1.922 1.922 0 01-1.023.413c-1.101.028-1.543-.361-2.21-1.267a2806.11 2806.11 0 00-16.009-21.5C2.99 34.59 1.471 31.724.721 28.506c-.39-1.678-.565-3.408-.72-4.374zm22.953-8.773a7.018 7.018 0 00-4.95 2.025 7.04 7.04 0 00-2.091 4.929c-.031 3.862 3.115 7.056 6.974 7.082 3.827.024 7.013-3.126 7.042-6.968a7.04 7.04 0 00-2.028-4.979 7.018 7.018 0 00-4.947-2.09z"/></symbol><symbol viewBox="0 0 26 32" id="play" xmlns="http://www.w3.org/2000/svg"><path d="M.754 15.768V2.17c0-.973.53-1.66 1.404-1.673.416-.006.886.166 1.246.393 2.875 1.805 5.73 3.639 8.59 5.47l12.43 7.948c1.324.846 1.325 2.074 0 2.92-6.989 4.464-13.981 8.927-20.977 13.387-.362.23-.82.413-1.24.428-.825.027-1.435-.666-1.445-1.532-.016-1.1-.006-2.202-.006-3.303l-.002-10.44z"/></symbol><symbol viewBox="0 0 25.96 19" id="purse" xmlns="http://www.w3.org/2000/svg"><path d="M24.72 6.5h.7a.48.48 0 01.54.54v5a.48.48 0 01-.54.55h-.7v3.85a2.61 2.61 0 01-1.48 2.32 2.83 2.83 0 01-1.4.3h-19a2.7 2.7 0 01-2.17-.93 2.35 2.35 0 01-.63-1.29 8.85 8.85 0 01-.06-.95V2.78A2.75 2.75 0 012.84 0h19a2.84 2.84 0 011.69.5 2.48 2.48 0 011.06 1.49 4.25 4.25 0 01.13.87v3.41zm-1-4.22a1.5 1.5 0 00-.42-.78 1.87 1.87 0 00-1.45-.57h-19a2 2 0 00-1.2.33 1.84 1.84 0 00-.78 1.56v13.42a1 1 0 000 .17 3.16 3.16 0 00.16.64 1.8 1.8 0 001.81 1.05h19.05a1.81 1.81 0 00.57-.06 1.79 1.79 0 001.35-1.84v-3.44c0-.23 0-.23-.22-.23h-3.67a3 3 0 01-3.09-2.48 2.86 2.86 0 01.48-2.26 3 3 0 012.57-1.29h3.72c.17 0 .21-.05.21-.21V3.53c0-.33 0-.33-.34-.33H3.74a1.21 1.21 0 01-.33-.07.43.43 0 01-.21-.49.44.44 0 01.43-.35h20.1zm-1.4 5.12h-2.34a3.78 3.78 0 00-.83.12 2.06 2.06 0 00-1.43 2.5 2.09 2.09 0 002.09 1.64h5c.15 0 .19-.05.19-.18v-3.9c0-.15-.06-.19-.2-.18z"/><path d="M21.09 9.5a1.13 1.13 0 01-1.11 1.14 1.16 1.16 0 01-1.17-1.14 1.14 1.14 0 011.17-1.14 1.13 1.13 0 011.11 1.14z"/></symbol><symbol viewBox="0 0 18 18" id="telegram" xmlns="http://www.w3.org/2000/svg"><path d="M7.266 14.378l.04-.569c.062-.86.123-1.72.189-2.58a.239.239 0 01.072-.146 5397.54 5397.54 0 015.67-5.065c.092-.077.18-.16.262-.246.031-.034.052-.103.038-.142-.01-.03-.087-.063-.126-.053-.122.03-.25.058-.355.122-.788.482-1.571.973-2.356 1.461a6287.345 6287.345 0 01-4.94 3.071.204.204 0 01-.15.02c-1.043-.318-2.086-.64-3.128-.966a1.162 1.162 0 01-.353-.19c-.16-.122-.168-.289-.042-.448.125-.159.299-.254.483-.326.875-.338 1.752-.673 2.63-1.005a35972.003 35972.003 0 019.846-3.748c.07-.028.145-.048.22-.06.43-.06.734.187.735.621a3.2 3.2 0 01-.085.655 3572.452 3572.452 0 01-1.873 8.722c-.072.336-.135.674-.224 1.007-.15.56-.543.732-1.059.458-.2-.107-.379-.256-.564-.392a929.152 929.152 0 01-2.628-1.915c-.078-.057-.12-.053-.19.013-.514.495-1.033.984-1.549 1.476a.742.742 0 01-.563.225z"/></symbol><symbol viewBox="0 0 24 24" id="vk-outline" xmlns="http://www.w3.org/2000/svg"><path d="M8.93 11.737v-.084c.003-.874.002-1.748.012-2.621.004-.34.009-.678-.08-1.01a1.982 1.982 0 00-.32-.637c-.157-.221-.333-.435-.449-.674-.35-.72.103-1.515.932-1.668.122-.024.246-.036.37-.038 1.266-.003 2.531 0 3.797-.003.233 0 .46.026.675.11.362.144.56.416.666.756.103.328.135.666.133 1.006-.008 1.25-.02 2.499-.031 3.749 0 .056.008.112.014.205.096-.084.175-.137.233-.206.322-.383.661-.756.954-1.159.711-.976 1.297-2.02 1.812-3.097.092-.192.174-.39.291-.57.34-.52.858-.778 1.5-.788.895-.014 1.79-.008 2.683 0 .35.003.682.09.958.302.435.334.529.776.422 1.264-.16.73-.549 1.372-.93 2.014a38.67 38.67 0 01-2.465 3.616c-.194.255-.183.194.024.403.652.66 1.322 1.308 1.965 1.978.583.607 1.126 1.246 1.55 1.965.214.363.366.742.353 1.17-.017.536-.442 1.05-1 1.19-.244.06-.497.09-.75.088-.774-.003-1.547-.008-2.32 0-.586.006-1.094-.174-1.504-.553-.454-.42-.883-.864-1.316-1.302-.567-.572-1.155-1.125-1.833-1.584-.182-.123-.368-.243-.602-.31a.946.946 0 00-.02.115 5.398 5.398 0 00-.009.25l-.014 1.43c-.001.207.018.415.003.621-.04.559-.378.916-.922 1.113-.518.188-1.062.223-1.61.22-1.343-.009-2.594-.344-3.77-.934-1.248-.627-2.308-1.473-3.26-2.442-.974-.992-1.802-2.083-2.535-3.239A21.782 21.782 0 01.627 8.65a20.965 20.965 0 01-.511-1.563 2.467 2.467 0 01-.113-.809C.03 5.62.469 5.15 1.158 5.046c.192-.027.387-.041.582-.041.784-.004 1.57-.002 2.354 0 .78.002 1.323.347 1.623 1.01.19.418.34.85.519 1.273.648 1.518 1.409 2.98 2.486 4.28.053.065.114.125.17.187l.038-.018zm.72-5.332c.035.051.052.08.073.104.488.587.703 1.266.716 1.994.02 1.177.008 2.354.003 3.53.003.263-.04.524-.126.774-.147.407-.499.656-.956.688-.389.026-.707-.12-1.003-.327-.432-.302-.777-.683-1.093-1.085-.648-.822-1.172-1.71-1.645-2.624a22.14 22.14 0 01-1.037-2.3 16.795 16.795 0 00-.224-.561c-.044-.107-.107-.193-.251-.193-.828.002-1.656.002-2.484 0-.082 0-.115.025-.095.104.077.297.136.599.23.89.232.718.533 1.411.866 2.093.74 1.515 1.628 2.947 2.726 4.261.82.98 1.735 1.87 2.835 2.584a7.91 7.91 0 002.426 1.073c.64.156 1.302.215 1.961.175.152-.009.302-.037.452-.056.096-.011.125-.06.123-.149-.007-.47-.01-.94-.01-1.41 0-.462-.017-.926.126-1.377.1-.316.293-.562.638-.676.45-.15.899-.127 1.34.026.508.175.937.471 1.352.789.713.548 1.346 1.172 1.963 1.81.264.273.532.542.805.807.181.175.4.265.672.249.25-.015.5-.003.75-.003h1.547c.153 0 .164-.016.113-.151a.286.286 0 00-.025-.05c-.151-.24-.285-.493-.458-.72-.696-.914-1.519-1.727-2.343-2.537-.3-.295-.607-.588-.877-.907-.258-.303-.371-.662-.273-1.056.064-.26.202-.486.356-.707.686-.984 1.379-1.965 2.055-2.956.376-.552.716-1.125.988-1.73.051-.115.089-.235.137-.365-.059-.005-.089-.01-.12-.01h-2.377c-.164 0-.269.065-.337.205-.214.443-.424.89-.656 1.325-.675 1.264-1.438 2.476-2.434 3.546-.41.44-.89.811-1.507.977-.498.134-.948-.002-1.216-.453-.176-.298-.205-.624-.207-.953a2242.04 2242.04 0 01-.014-4.492c0-.153 0-.153-.168-.153l-3.15-.002h-.168z"/></symbol><symbol viewBox="0 0 18 18" id="whatsapp-outline" xmlns="http://www.w3.org/2000/svg"><path d="M2 16.5l.267-.979c.255-.927.512-1.854.764-2.782a.239.239 0 00-.021-.163 7.317 7.317 0 01-.93-3.086 7.272 7.272 0 01.93-4.173A7.38 7.38 0 015.934 2.42a7.28 7.28 0 012.906-.888 7.416 7.416 0 013.724.605 7.425 7.425 0 013.031 2.456 7.098 7.098 0 011.32 3.219c.3 2.1-.189 4.006-1.493 5.688-1.017 1.312-2.343 2.184-3.95 2.622a7.335 7.335 0 01-3.184.152 7.58 7.58 0 01-2.237-.75.288.288 0 00-.19-.022c-1.233.32-2.467.641-3.7.965-.043.012-.087.018-.161.033zm1.796-1.766l.097-.023c.712-.186 1.423-.373 2.137-.552a.357.357 0 01.22.032c.331.158.649.349.988.486a6.032 6.032 0 003.536.315c1.407-.289 2.583-.98 3.5-2.08 1.254-1.504 1.696-3.235 1.348-5.154-.216-1.19-.775-2.216-1.608-3.097-1.681-1.774-4.382-2.388-6.669-1.507-1.415.547-2.506 1.475-3.24 2.797-.761 1.363-.96 2.817-.629 4.34a6.31 6.31 0 00.88 2.072.274.274 0 01.034.195c-.082.327-.176.65-.265.975-.108.393-.215.786-.33 1.2z"/><path d="M7.09 5.504c.419.006.457.033.617.422.175.423.347.848.53 1.268.07.159.064.297-.039.433-.146.193-.291.387-.44.578-.114.147-.124.214-.03.373.607 1.021 1.458 1.761 2.569 2.198.165.064.254.047.367-.088.193-.23.383-.463.569-.699.122-.153.196-.191.377-.115.326.138.647.291.969.442.2.094.396.197.595.294.1.05.147.128.146.24-.004.554-.174 1.01-.675 1.324-.636.398-1.292.406-1.988.204C9 11.896 7.741 10.876 6.724 9.522c-.318-.425-.626-.855-.813-1.358-.265-.717-.257-1.41.174-2.069.051-.076.108-.149.169-.217.287-.332.393-.379.835-.374z"/></symbol><symbol viewBox="0 0 24 24" id="youtube-outline" xmlns="http://www.w3.org/2000/svg"><path d="M11.96 3c1.881.051 3.736.097 5.59.156.797.025 1.592.07 2.386.122.566.036 1.123.131 1.643.375.845.396 1.471.997 1.813 1.872a7.16 7.16 0 01.472 2.244c.038.736.112 1.472.123 2.21.02 1.367.02 2.735 0 4.104-.009.672-.068 1.342-.114 2.013-.024.35-.044.703-.11 1.047-.153.803-.363 1.59-.89 2.25a3.518 3.518 0 01-1.457 1.07 3.867 3.867 0 01-1.241.268 215.72 215.72 0 01-4.177.192c-1.19.043-2.38.076-3.571.077-1.254.001-2.508-.038-3.76-.065a71.817 71.817 0 01-1.756-.056c-.936-.043-1.872-.08-2.806-.15-.603-.044-1.2-.145-1.756-.405-.773-.363-1.347-.92-1.685-1.705-.336-.775-.462-1.59-.529-2.43-.164-2.056-.145-4.116-.113-6.174.015-.953.08-1.909.184-2.856.087-.792.312-1.562.746-2.246.31-.49.744-.86 1.252-1.143.405-.225.838-.384 1.3-.423.837-.07 1.673-.145 2.511-.174 1.99-.071 3.981-.118 5.946-.173zm.135 1.4c-1.796.044-3.483.08-5.169.13-.788.023-1.575.08-2.363.116-.434.02-.865.046-1.282.18-.501.16-.91.449-1.174.9a3.875 3.875 0 00-.498 1.591 43.516 43.516 0 00-.167 2.649 57.295 57.295 0 00.029 4.902c.047.915.037 1.841.317 2.73.094.298.188.6.382.853.358.47.854.721 1.43.797.64.085 1.286.15 1.933.183 1.08.055 2.16.084 3.242.11 1.234.03 2.467.063 3.701.061 1.214-.002 2.429-.035 3.642-.074 1.16-.037 2.318-.091 3.476-.152.338-.02.675-.063 1.007-.128.495-.094.896-.36 1.195-.757.324-.43.456-.946.553-1.46.084-.442.114-.896.145-1.347.11-1.597.123-3.197.094-4.797-.02-1.008-.088-2.014-.131-3.022a6.21 6.21 0 00-.328-1.71c-.205-.611-.619-1.017-1.203-1.261-.403-.169-.836-.215-1.27-.239-.729-.04-1.457-.084-2.187-.106-1.83-.057-3.657-.102-5.374-.149z"/><path d="M8.954 11.764V8.982c0-.305.098-.567.331-.773.322-.285.774-.313 1.164-.1a2516.513 2516.513 0 015.166 2.798c.24.13.424.304.526.565.139.358.018.858-.308 1.067-.333.213-.684.397-1.034.584a1412.39 1412.39 0 01-4.343 2.31c-.421.226-.827.191-1.174-.101a.912.912 0 01-.32-.613 1.908 1.908 0 01-.008-.22v-2.735zm5.362.03l-3.94-2.135v4.232l3.94-2.097z"/></symbol></svg>